<svg height="512" viewBox="0 0 58 58" width="512" xmlns="http://www.w3.org/2000/svg"><g id="Page-1" fill="none" fill-rule="evenodd"><g id="005---Domino-Books" fill-rule="nonzero"><rect id="Rectangle-path" fill="#805333" height="50" rx="2" transform="matrix(.985 .174 -.174 .985 6.102 -4.962)" width="15" x="23.911" y="7.394"/><path id="Rectangle-path" d="m32.123 6.675h5v15h-5z" fill="#f29c1f" transform="matrix(.174 -.985 .985 .174 14.651 45.811)"/><path id="Rectangle-path" d="m25.698 43.113h5v15h-5z" fill="#f29c1f" transform="matrix(.174 -.985 .985 .174 -26.543 69.594)"/><rect id="Rectangle-path" fill="#a56a43" height="58" rx="2" width="15" x="43"/><path id="Rectangle-path" d="m43 4h15v5h-15z" fill="#f0c419"/><path id="Rectangle-path" d="m43 49h15v5h-15z" fill="#f0c419"/><rect id="Rectangle-path" fill="#ecf0f1" height="30" rx="1" width="7" x="47" y="14"/><path id="Shape" d="m25.18 23.35-.62 1.9-.62 1.9-8.34 25.67-.62 1.9-.62 1.91c-.1626954.5055255-.5197667.9255889-.9924898 1.1675781-.472723.2419892-1.0222804.2860333-1.5275102.1224219l-10.46-3.4c-1.04879708-.3430516-1.62158292-1.4707237-1.28-2.52l.62-1.91.62-1.9 8.33-25.68h.01l.61-1.9.62-1.9c.3430516-1.0487971 1.4707237-1.6215829 2.52-1.28l10.47 3.4c1.0487971.3430516 1.6215829 1.4707237 1.28 2.52z" fill="#603e26"/><path id="Shape" d="m7.63 47.59c-.10491728-.000217-.20916272-.0167479-.309-.049-.52519989-.1706828-.81262083-.73478-.642-1.26l5.47-16.849c.0968478-.3558425.3816856-.6294992.7411192-.712027.3594337-.0825279.7351158.0394699.9774871.317426.2423712.2779561.3120871.6667494.1813937 1.011601l-5.468 16.851c-.13421213.4116142-.51805761.6901141-.951.69z" fill="#ecf0f1"/><path id="Shape" d="m12.07 49.03c-.1049173-.000217-.2091627-.0167479-.309-.049-.5251999-.1706828-.8126208-.73478-.642-1.26l2.93-9.03c.0979856-.3547079.3828679-.6269388.7416581-.7087217s.7335067.0400986.9755312.3173044c.2420244.2772057.3122448.6649385.1828107 1.0094173l-2.93 9.029c-.1332832.4117049-.5162596.6909669-.949.692z" fill="#ecf0f1"/><path id="Shape" d="m24.56 25.25-.62 1.9-14.26-4.64.61-1.9z" fill="#e57e25"/><path id="Shape" d="m15.6 52.82-.62 1.9-14.26-4.63.62-1.9z" fill="#e57e25"/><g fill="#ecf0f1"><path id="Shape" d="m36.6 24.154c-.0586513-.0000707-.1171922-.0050885-.175-.015l-6.894-1.216c-.5440005-.0960976-.9070975-.6149995-.811-1.159.0960976-.5440005.6149995-.9070975 1.159-.811l6.894 1.216c.5110218.0895216.8687147.55498.8236698 1.0718246-.0450448.5168446-.477866.9134069-.9966698.9131754z"/><path id="Shape" d="m35.9 28.093c-.058318-.0001126-.1165231-.0051303-.174-.015l-6.894-1.216c-.3582785-.0552252-.6586138-.300022-.7849578-.6398021s-.0589093-.7213287.1762476-.9972173c.235157-.2758885.601207-.4029088.9567102-.3319806l6.893 1.215c.5110218.0895216.8687147.55498.8236698 1.0718246-.0450448.5168446-.477866.9134069-.9966698.9131754z"/></g></g></g></svg>