<?xml version="1.0" encoding="utf-8"?>
<!-- Generator: Adobe Illustrator 16.0.0, SVG Export Plug-In . SVG Version: 6.00 Build 0)  -->
<!DOCTYPE svg PUBLIC "-//W3C//DTD SVG 1.1//EN" "http://www.w3.org/Graphics/SVG/1.1/DTD/svg11.dtd">
<svg version="1.1" id="menú" xmlns="http://www.w3.org/2000/svg" xmlns:xlink="http://www.w3.org/1999/xlink" x="0px" y="0px"
	 width="158.398px" height="30.152px" viewBox="0 0 158.398 30.152" enable-background="new 0 0 158.398 30.152"
	 xml:space="preserve">
<polygon fill="#002856" points="21.827,3.703 24.92,3.703 24.92,0.773 19.691,0.773 13.271,12.495 10.198,12.495 10.198,0.773 
	0.876,0.773 0.876,3.703 4.414,3.703 4.414,29.283 10.198,29.283 10.198,15.685 12.347,15.685 19.981,29.279 26.864,29.279 
	17.278,11.937 "/>
<path fill="#002856" d="M38.387,4.805c-8.676,0-12.049,7.516-12.049,12.36c0,4.869,3.379,12.153,12.049,12.153
	c8.675,0,11.793-6.802,11.793-12.188C50.18,12.276,47.056,4.805,38.387,4.805 M38.476,26.374c-4.89,0-5.687-3.953-5.848-8.986
	c-0.162-5.073,0.856-9.654,5.759-9.654c4.896,0,5.659,4.313,5.659,9.342C44.046,22.15,43.368,26.374,38.476,26.374"/>
<path fill="#002856" d="M66.97,4.781c-3.319,0-5.938,1.496-7.609,3.857V4.781h-9.793v2.93h3.996v21.573h5.797V15.606
	c0-4.223,2.109-7.896,5.98-7.896c2.729,0,3.191,2.013,3.191,4.594v16.978h5.785V12.058C74.317,7.101,71.775,4.781,66.97,4.781"/>
<path fill="#002856" d="M131.68,0.764l-5.77,2.024v1.994h-3.212V7.74h3.212v15.629c0,5.624,4.137,6.614,8.958,5.529
	c0.565-0.125,1.322-0.459,1.322-0.459v-2.477c-1.67,0.661-4.565,0.924-4.511-2.685V7.74h5.169V4.782h-5.169V0.764z"/>
<path fill="#002856" d="M95.749,21.898c-1.263,3.289-3.771,4.454-6.961,4.454c-3.543,0-5.115-3.528-5.115-7.702l-0.024-1.667
	l0.007-1.283h15.004l-0.027-0.483C98.216,8.909,94.165,4.823,88.209,4.823c-6.028,0-11.225,5.719-11.225,12.265
	c0,6.451,5.368,12.208,11.45,12.208c4.492,0,8.207-2.985,9.479-7.397H95.749z M87.821,7.719c2.793,0,4.015,2.063,4.142,4.792h-8.313
	C83.688,9.863,84.739,7.719,87.821,7.719"/>
<path fill="#002856" d="M119.615,21.898c-1.263,3.289-3.771,4.452-6.96,4.452c-3.541,0-6.139-4.288-5.999-9.919
	c0.159-6.453,2.889-8.668,6.874-8.722c1.16-0.016,2.38-0.174,4.906,0.959v3.842h2.929c0,0,0.002-4.792,0-4.794
	c-1.732-1.731-4.167-2.936-8.517-2.936c-6.926,0-11.996,5.761-11.996,12.307c0,6.451,5.368,12.208,11.449,12.208
	c4.491,0,8.206-2.985,9.478-7.397H119.615z"/>
<path fill="#002856" d="M157.767,12.52c0-4.068-1.773-7.701-9.229-7.701c-2.646,0-5.625,0.478-7.797,2.892
	c-0.681,0.755-1.644,2.594-1.644,4.8h2.921c0.011-0.361,0.04-0.746,0.122-1.044c1.017-3.715,4.593-3.803,5.978-3.717
	c1.954,0.122,3.869,1.244,3.869,4.584l-0.005,1.237c-4.017,0.25-14.969,1.631-14.969,8.963c0,4.154,2.073,6.75,7.103,6.75
	c2.344,0,6.292-1.062,7.86-2.933l0.001,2.949h5.794L157.767,12.52z M151.984,16.804c0,6.362-2.206,9.549-6.065,9.549
	c-1.957,0-2.98-0.977-2.98-3.912c0-6.326,9.047-6.742,9.047-6.742L151.984,16.804z"/>
</svg>
